<svg width="6" height="10" viewBox="0 0 6 10" xmlns="http://www.w3.org/2000/svg"><path d="M1.142 6.683L2.31 7.75s.35.38.69.38c.34 0 .689-.379.689-.379l1.169-1.068a.69.69 0 0 1 .943.006.62.62 0 0 1 .006.905L3.47 9.817A.671.671 0 0 1 3 10a.671.671 0 0 1-.469-.183L.193 7.594a.62.62 0 0 1 .006-.905.69.69 0 0 1 .943-.006zm0-3.366A.69.69 0 0 1 .2 3.311a.62.62 0 0 1-.006-.905L2.53.183A.671.671 0 0 1 3 0c.171 0 .341.06.469.183l2.338 2.223a.62.62 0 0 1-.006.905.69.69 0 0 1-.943.006L3.688 2.25S3.34 1.87 3 1.87c-.34 0-.69.38-.69.38L1.142 3.317z" fill="#55198B" fill-rule="evenodd"/></svg>